# Blender 5.0.1
# www.blender.org
mtllib station.mtl
o Cube
v -10.000000 -0.500000 0.000000
v 10.000000 -0.500000 0.000000
v -10.000000 -0.500000 5.000000
v 10.000000 -0.008364 5.000000
v -10.000000 -0.008364 5.000000
v 10.000000 -0.500000 5.000000
v -10.000000 -0.008364 -5.000000
v 10.000000 -0.500000 -5.000000
v -10.000000 -0.500000 -5.000000
v 10.000000 -0.008364 -5.000000
v 14.291527 8.522175 -0.000001
v 14.291527 5.514783 5.000000
v 14.291527 5.514783 -5.000000
v -10.000000 -0.008364 -7.500000
v 10.000000 -0.500000 -7.500000
v -10.000000 -0.500000 -7.500000
v 10.000000 -0.008364 -7.500000
v 5.000000 -0.008364 -7.500000
v -5.000000 -0.008364 -7.500000
v -7.500000 -0.500000 -10.000000
v -7.500000 -0.008364 10.000000
v -7.500000 -0.500000 5.000000
v -7.500000 -0.500000 -5.000000
v -7.500000 -0.500000 10.000000
v -7.500000 -0.008364 -10.000000
v -7.500000 -0.008364 5.000000
v -7.500000 -0.008364 -5.000000
v -7.500000 -0.500000 -7.500000
v -7.500000 -0.008364 -7.500000
v 7.500000 -0.500000 10.000000
v 7.500000 -0.008364 -10.000000
v 7.500000 -0.008364 5.000000
v 7.500000 -0.008364 -5.000000
v 7.500000 -0.500000 -10.000000
v 7.500000 -0.008364 10.000000
v 7.500000 -0.008364 -7.500000
v 7.500000 -0.500000 -7.500000
v 5.000000 -0.008364 -5.000000
v 5.000000 -0.008364 5.000000
v -5.000000 -0.008364 5.000000
v -5.000000 -0.008364 -5.000000
v -10.000000 -0.500000 7.500000
v 10.000000 -0.008364 7.500000
v -10.000000 -0.008364 7.500000
v 10.000000 -0.500000 7.500000
v 5.000000 -0.008364 7.500000
v -5.000000 -0.008364 7.500000
v -7.500000 -0.500000 7.500000
v -7.500000 -0.008364 7.500000
v 7.500000 -0.008364 7.500000
v 7.500000 -0.500000 7.500000
v 10.000000 -1.515792 5.000000
v 10.000000 -1.515792 -5.000000
v 10.000000 -1.515792 -7.500000
v -7.500000 -1.515792 5.000000
v -7.500000 -1.515792 -5.000000
v -7.500000 -1.515792 -7.500000
v 10.000000 -1.515792 7.500000
v -7.500000 -1.515792 7.500000
v 14.291527 -0.500000 5.000000
v 14.291527 -0.500000 -5.000000
v 14.291527 -0.500000 -7.500000
v 14.291527 -0.500000 7.500000
v 14.291527 -1.515792 5.000000
v 14.291527 -1.515792 -5.000000
v 14.291527 -1.515792 -7.500000
v 14.291527 -1.515792 7.500000
v 21.655481 -0.500000 5.000000
v 21.655481 -0.500000 -5.000000
v 21.655481 -0.500000 -7.500000
v 21.655481 -0.500000 7.500000
v 21.655481 -1.515792 5.000000
v 21.655481 -1.515792 -5.000000
v 21.655481 -1.515792 -7.500000
v 21.655481 -1.515792 7.500000
v 14.291527 -7.151620 5.000000
v 14.291527 -7.151620 -5.000000
v 14.291527 -7.151620 -7.500000
v 14.291527 -7.151620 7.500000
v 21.655481 -7.151620 5.000000
v 21.655481 -7.151620 -5.000000
v 21.655481 -7.151620 -7.500000
v 21.655481 -7.151620 7.500000
v 14.291527 11.529567 5.000000
v 14.291527 11.529567 -5.000000
v 21.655481 11.529567 5.000000
v 21.655481 11.529567 -5.000000
v 14.291527 7.018479 2.499999
v 14.291527 7.018479 -2.500000
v 14.291527 5.514783 0.000000
v 14.291527 7.018479 -0.000000
vn -0.0000 1.0000 -0.0000
vn -1.0000 -0.0000 -0.0000
vn -0.0000 -0.0000 -1.0000
vn -0.0000 -1.0000 -0.0000
vn -0.0000 -0.0000 1.0000
vn 1.0000 -0.0000 -0.0000
vn -0.3764 -0.9264 -0.0000
vn -0.0000 0.2035 0.9791
vn -0.0000 0.2035 -0.9791
vn -0.7071 -0.0000 -0.7071
vn -0.7071 -0.0000 0.7071
vn 0.7071 -0.0000 -0.7071
vn 0.7071 -0.0000 0.7071
vt 0.843750 0.562500
vt 0.812500 0.562500
vt 0.812500 0.531250
vt 0.375000 0.031250
vt 0.625000 0.031250
vt 0.625000 0.062500
vt 0.375000 0.062500
vt 0.625000 0.187500
vt 0.375000 0.187500
vt 0.375000 0.125000
vt 0.375000 0.687500
vt 0.156250 0.687500
vt 0.343750 0.718750
vt 0.343750 0.750000
vt 0.156250 0.750000
vt 0.156250 0.718750
vt 0.156250 0.562500
vt 0.125000 0.562500
vt 0.375000 0.531250
vt 0.625000 0.531250
vt 0.625000 0.562500
vt 0.375000 0.562500
vt 0.656250 0.531250
vt 0.687500 0.531250
vt 0.656250 0.562500
vt 0.843750 0.687500
vt 0.812500 0.718750
vt 0.812500 0.687500
vt 0.656250 0.750000
vt 0.656250 0.718750
vt 0.687500 0.718750
vt 0.843750 0.718750
vt 0.843750 0.750000
vt 0.625000 0.781250
vt 0.625000 0.968750
vt 0.375000 0.968750
vt 0.375000 0.781250
vt 0.656250 0.687500
vt 0.687500 0.687500
vt 0.687500 0.562500
vt 0.375000 0.718750
vt 0.625000 0.281250
vt 0.625000 0.468750
vt 0.375000 0.468750
vt 0.375000 0.281250
vt 0.125000 0.687500
vt 0.125000 0.625000
vt 0.375000 0.625000
vt 0.625000 0.718750
vt 0.625000 0.687500
vt 0.656250 0.500000
vt 0.843750 0.500000
vt 0.843750 0.531250
vt 0.625000 0.218750
vt 0.375000 0.218750
vt 0.000000 0.000000
vt 0.187500 0.281250
vt 0.187500 0.281250
vt 0.875000 0.687500
vt 0.875000 0.718750
vt 0.875000 0.531250
vt 0.875000 0.562500
vt 0.343750 0.531250
vt 0.156250 0.531250
vt 0.156250 0.500000
vt 0.343750 0.500000
vt 0.125000 0.531250
vt 0.125000 0.718750
vt 0.281250 0.421875
vt 0.093750 0.140625
vt 0.375000 0.546875
s 0
usemtl BODY
f 6/11/3 52/11/3 55/12/3 22/12/3
f 23/17/5 9/18/5 56/17/5
f 52/11/3 6/11/3 60/11/3 64/11/3
f 51/13/5 48/16/5 59/16/5 58/41/5 45/41/5
f 61/22/2 60/56/2 12/56/2 90/57/2 13/22/2
f 8/22/5 23/17/5 56/17/5 53/22/5
f 84/56/2 85/22/2 11/58/2
f 6/11/1 45/41/1 63/41/1 60/11/1
f 16/67/3 28/64/3 57/64/3
f 54/19/4 53/22/4 56/17/4 57/64/4
f 16/67/7 57/64/7 56/17/7 9/18/7
f 55/12/4 52/11/4 58/41/4 59/16/4
f 3/46/7 55/12/7 59/16/7 42/68/7
f 11/58/2 85/22/2 13/22/2 89/69/2
f 48/16/5 42/68/5 59/16/5
f 3/46/3 22/12/3 55/12/3
f 37/63/3 15/19/3 54/19/3 57/64/3 28/64/3
f 11/58/2 88/70/2 12/56/2 84/56/2
f 66/19/3 62/19/3 70/19/3 74/19/3
f 75/41/5 67/41/5 79/41/5 83/41/5
f 15/19/1 8/22/1 61/22/1 62/19/1
f 53/22/4 54/19/4 66/19/4 65/22/4
f 58/41/4 52/11/4 64/11/4 67/41/4
f 45/41/5 58/41/5 67/41/5 63/41/5
f 8/22/5 53/22/5 65/22/5 61/22/5
f 54/19/3 15/19/3 62/19/3 66/19/3
f 60/11/2 63/41/2 84/11/2 12/11/2
f 70/19/6 69/22/6 73/22/6 74/19/6
f 68/11/6 71/41/6 75/41/6 72/11/6
f 68/11/6 72/11/6 73/22/6 69/22/6
f 63/41/8 71/41/8 86/41/8 84/41/8
f 65/22/2 66/19/2 78/19/2 77/22/2
f 63/41/5 67/41/5 75/41/5 71/41/5
f 73/22/6 72/11/6 80/11/6 81/22/6
f 13/22/2 90/57/2 89/69/2
f 64/56/2 60/56/2 61/22/2 65/56/2
f 77/22/4 78/19/4 82/19/4 81/22/4
f 77/56/4 81/56/4 80/56/4 76/56/4
f 79/41/4 76/11/4 80/11/4 83/41/4
f 74/19/6 73/22/6 81/22/6 82/19/6
f 64/56/2 65/56/2 77/56/2 76/56/2
f 67/41/2 64/11/2 76/11/2 79/41/2
f 72/11/6 75/41/6 83/41/6 80/11/6
f 66/19/3 74/19/3 82/19/3 78/19/3
f 84/56/1 86/56/1 87/56/1 85/56/1
f 71/41/6 68/11/6 86/41/6
f 68/11/6 69/22/6 87/22/6 86/11/6
f 62/19/2 61/22/2 13/71/2 85/19/2
f 70/19/9 62/19/9 85/19/9 87/19/9
f 69/22/6 70/19/6 87/22/6
f 88/70/2 90/57/2 12/56/2
usemtl LANDING-FRAME
f 42/4/2 44/5/2 5/6/2 3/7/2
f 5/6/2 7/8/2 9/9/2 1/10/2 3/7/2
f 51/13/4 30/14/4 24/15/4 48/16/4
f 15/19/6 17/20/6 10/21/6 8/22/6
f 36/23/1 18/24/1 33/25/1
f 35/29/1 50/30/1 46/31/1 47/27/1 49/32/1 21/33/1
f 35/34/5 21/35/5 24/36/5 30/37/5
f 25/42/3 31/43/3 34/44/3 20/45/3
f 6/11/4 22/12/4 3/46/4 1/47/4 9/18/4 23/17/4 8/22/4 2/48/4
f 32/38/1 50/30/1 43/49/1 4/50/1 10/21/1 17/20/1 36/23/1 33/25/1
f 31/51/1 25/52/1 29/53/1 19/3/1 18/24/1 36/23/1
f 9/9/2 7/8/2 14/54/2 16/55/2
f 19/3/1 29/53/1 27/1/1
f 5/59/1 44/60/1 49/32/1 26/26/1 27/1/1 29/53/1 14/61/1 7/62/1
f 37/63/4 28/64/4 20/65/4 34/66/4
f 10/21/6 4/50/6 6/11/6 2/48/6 8/22/6
f 32/38/1 46/31/1 50/30/1
f 6/11/6 4/50/6 43/49/6 45/41/6
f 28/64/4 16/67/4 20/65/4
f 29/53/1 25/52/1 14/61/1
f 16/67/10 14/61/10 25/42/10 20/65/10
f 24/15/4 42/68/4 48/16/4
f 49/32/1 44/60/1 21/33/1
f 24/15/11 21/33/11 44/5/11 42/68/11
f 37/63/4 34/66/4 15/19/4
f 36/23/1 17/20/1 31/51/1
f 15/19/12 34/66/12 31/43/12 17/20/12
f 51/13/4 45/41/4 30/14/4
f 35/29/1 43/49/1 50/30/1
f 30/14/13 45/41/13 43/49/13 35/29/13
f 47/27/1 26/26/1 49/32/1
usemtl SIGN
f 89/69/2 91/58/2 11/58/2
f 11/58/2 91/58/2 88/70/2
f 88/70/2 91/58/2 90/57/2
f 91/58/2 89/69/2 90/57/2
usemtl LANDING-PAD
f 27/1/1 41/2/1 19/3/1
f 26/26/1 47/27/1 40/28/1
f 32/38/1 39/39/1 46/31/1
f 18/24/1 38/40/1 33/25/1
f 40/28/1 41/2/1 27/1/1 26/26/1
f 19/3/1 41/2/1 38/40/1 18/24/1
f 41/2/1 40/28/1 39/39/1 38/40/1
f 38/40/1 39/39/1 32/38/1 33/25/1
f 46/31/1 39/39/1 40/28/1 47/27/1
