# Blender 5.0.1
# www.blender.org
mtllib low-polly-ship.mtl
o Cube
v 0.005886 -0.764875 -1.149492
v 0.008196 -1.005408 -2.002458
v 0.746071 0.358610 8.550172
v 0.746071 -1.125334 8.550172
v -0.744193 -0.883362 0.997542
v -0.737874 0.358610 8.550172
v -0.737874 -1.125334 8.550172
v 0.008196 0.616638 8.550172
v 0.008196 -1.383362 8.550172
v -0.721995 -0.845748 1.004216
v 0.396637 -0.383362 -2.002458
v -5.758483 -0.383362 7.471255
v 5.732554 -0.383362 7.471255
v -0.394530 -0.383362 -2.002458
v 0.008196 -0.600173 -3.116165
v 0.744193 -0.883362 0.997542
v 0.721978 -0.845569 1.004118
v 0.008196 -1.383362 0.997542
v 0.008196 0.616638 0.997542
v -0.495350 0.616638 0.994255
v -0.494569 -1.167312 0.989609
v 0.502584 -1.167312 0.988386
v 0.507181 0.616638 1.016193
v -1.000000 -0.383362 8.550172
v 1.000001 -0.383362 8.550172
v 0.007972 0.485918 8.740251
v 0.007972 -1.252643 8.740251
v -0.869055 -0.383362 8.740251
v 0.869504 -0.383362 8.740251
v -0.641281 0.261375 8.740251
v -0.641281 -1.028099 8.740251
v 0.648682 -1.028592 8.740251
v 0.648682 0.261868 8.740251
v -0.737874 -1.125334 8.740251
v 0.008196 -1.383362 8.740251
v -0.737874 0.358610 8.740251
v -1.000000 -0.383362 8.740251
v 0.746071 -1.125334 8.740251
v 1.000001 -0.383362 8.740251
v 0.746071 0.358610 8.740251
v 0.008196 0.616638 8.740251
v 0.007972 0.485918 7.848142
v 0.007972 -1.252643 7.848142
v 0.034124 -0.383362 7.848142
v -0.869055 -0.383362 7.848142
v 0.869504 -0.383362 7.848142
v -0.641281 0.261375 7.848142
v -0.641281 -1.028099 7.848142
v 0.648682 -1.028592 7.848142
v 0.648682 0.261868 7.848142
v 0.006089 -0.818350 3.916311
v -1.000000 -0.886692 6.916312
v 1.000000 -0.886692 6.916311
v 0.008196 0.113308 6.916311
v -0.495350 0.113308 6.913024
v 0.507181 0.113308 6.934963
v 1.000000 -0.383362 0.997542
v 0.006089 -0.315020 -2.002458
v -1.000000 -0.383362 0.997542
v -0.492131 -0.385390 1.002115
v 0.497325 -0.385360 1.002048
v 0.002597 -0.385375 1.002082
v -0.000008 -0.845659 1.004167
vn -0.9429 0.3331 -0.0000
vn -0.1261 0.9877 -0.0927
vn 0.3960 -0.9110 -0.1148
vn 0.1672 0.9552 -0.2443
vn -0.1630 0.9557 -0.2450
vn -0.3907 -0.9133 -0.1151
vn 0.2216 0.0758 0.9722
vn 0.9461 0.3238 -0.0000
vn 0.8329 -0.5201 -0.1892
vn 0.8364 -0.5223 -0.1665
vn -0.7512 -0.6598 -0.0205
vn -0.9429 -0.3331 -0.0000
vn 0.8902 -0.4554 -0.0148
vn -0.1681 0.9852 -0.0339
vn -0.8235 -0.5331 -0.1940
vn -0.2205 -0.0779 0.9723
vn -0.2205 0.0779 0.9723
vn 0.3301 0.9439 -0.0000
vn -0.8762 -0.4483 -0.1768
vn 0.8968 0.4422 -0.0133
vn 0.8763 -0.4483 -0.1762
vn -0.3947 -0.9188 -0.0076
vn -0.7395 -0.6447 -0.1936
vn -0.0013 0.9994 0.0343
vn -0.0002 0.9994 0.0341
vn -0.8927 0.4505 -0.0133
vn 0.7618 -0.6475 -0.0209
vn 0.4003 -0.9163 -0.0078
vn -0.8902 -0.4554 -0.0138
vn 0.1723 0.9844 -0.0346
vn -0.1261 -0.9877 -0.0927
vn 0.1269 0.9876 -0.0928
vn 0.1269 -0.9876 -0.0928
vn 0.7504 -0.6323 -0.1923
vn -0.8275 -0.5357 -0.1680
vn -0.3269 0.9451 -0.0000
vn 0.3301 -0.9439 -0.0000
vn -0.3269 -0.9451 -0.0000
vn 0.2216 -0.0758 0.9722
vn 0.9461 -0.3238 -0.0000
vn -0.3301 0.9439 -0.0000
vn 0.9429 -0.3331 -0.0000
vn -0.3301 -0.9439 -0.0000
vn 0.9429 0.3331 -0.0000
vn -0.9461 -0.3238 -0.0000
vn 0.3269 0.9451 -0.0000
vn -0.9461 0.3238 -0.0000
vn 0.3269 -0.9451 -0.0000
vn -0.0000 -0.0000 1.0000
vn 0.0019 0.9550 -0.2966
vn 0.0111 0.9549 -0.2966
vn 0.8603 0.4291 -0.2752
vn -0.8580 0.4321 -0.2779
vn -0.0001 -0.0045 -1.0000
vn 0.0065 -0.0066 -1.0000
vn -0.0001 0.9993 0.0375
vn 0.0373 0.0370 -0.9986
vn -0.8181 0.4962 0.2906
vn 0.8171 0.4955 0.2947
vn 0.0090 -0.0090 -0.9999
vn -0.0089 -0.0089 -0.9999
vn 0.7996 0.5311 0.2803
vn -0.8028 0.5275 0.2780
vt 0.614073 0.884992
vt 0.603146 0.896009
vt 0.500000 0.000000
vt 0.625000 0.000000
vt 0.500000 0.125000
vt 0.375000 0.500000
vt 0.375000 0.624619
vt 0.313012 0.625000
vt 0.500000 0.376024
vt 0.625000 0.376024
vt 0.500000 0.500000
vt 0.500000 0.250000
vt 0.251024 0.500000
vt 0.251024 0.625000
vt 0.188179 0.624669
vt 0.500000 0.750000
vt 0.625000 0.750000
vt 0.603342 0.852495
vt 0.614171 0.863235
vt 0.375000 0.376024
vt 0.375000 0.000000
vt 0.437500 0.125000
vt 0.375000 0.125331
vt 0.396854 0.896009
vt 0.385927 0.884992
vt 0.375000 0.750000
vt 0.437500 0.625000
vt 0.500000 0.625000
vt 0.562500 0.125000
vt 0.625000 0.250000
vt 0.500000 1.000000
vt 0.375000 1.000000
vt 0.625000 1.000000
vt 0.625000 0.873976
vt 0.562500 0.625000
vt 0.625000 0.625777
vt 0.125000 0.750000
vt 0.686602 0.625777
vt 0.748976 0.625000
vt 0.811988 0.625000
vt 0.875000 0.624863
vt 0.875000 0.750000
vt 0.625000 0.125137
vt 0.625000 0.500000
vt 0.375000 0.250000
vt 0.748976 0.750000
vt 0.251024 0.750000
vt 0.396658 0.852496
vt 0.385829 0.863236
vt 0.391190 0.874027
vt 0.445460 0.864904
vt 0.375000 0.873976
vt 0.554126 0.883819
vt 0.500000 0.893625
vt 0.598797 0.864737
vt 0.608515 0.874030
vt 0.409915 0.893219
vt 0.400420 0.883646
vt 0.589380 0.855398
vt 0.500000 0.855801
vt 0.562500 0.885225
vt 0.437500 0.863469
vt 0.500000 0.852962
vt 0.500000 0.873976
vt 0.500000 0.896474
vt 0.875000 0.500000
vt 0.748976 0.500000
vt 0.000000 0.000000
s 0
usemtl BODY
f 12/3/2 6/4/2 59/5/2
f 2/6/3 22/7/3 18/8/3
f 15/9/4 58/10/4 11/11/4
f 14/12/5 58/10/5 15/9/5
f 2/13/6 18/14/6 21/15/6
f 13/16/7 3/17/7 25/18/7
f 2/20/9 15/9/9 11/11/9
f 2/6/10 11/11/10 22/7/10
f 7/21/11 5/22/11 21/23/11
f 4/26/13 16/27/13 57/28/13
f 14/12/14 59/29/14 58/30/14
f 2/20/15 14/12/15 15/9/15
f 12/31/16 7/32/16 24/24/16
f 12/31/17 24/2/17 6/33/17
f 14/12/19 5/22/19 59/5/19
f 3/17/20 57/35/20 23/36/20
f 57/28/21 16/27/21 11/11/21
f 21/15/22 18/14/22 7/37/22
f 21/23/23 5/22/23 14/12/23
f 23/38/24 19/39/24 3/17/24
f 19/40/25 20/41/25 6/42/25
f 20/43/26 59/29/26 6/4/26
f 22/7/27 16/27/27 4/26/27
f 18/8/28 22/7/28 4/26/28
f 59/5/29 5/22/29 7/21/29
f 58/44/30 57/35/30 11/11/30
f 7/21/31 12/3/31 59/5/31
f 3/17/32 13/16/32 57/28/32
f 57/28/33 13/16/33 4/26/33
f 22/7/34 11/11/34 16/27/34
f 14/12/35 2/45/35 21/23/35
f 6/42/36 8/46/36 19/40/36
f 3/17/18 19/39/18 8/46/18
f 4/26/37 9/47/37 18/8/37
f 7/37/38 18/14/38 9/47/38
f 25/48/39 4/26/39 13/16/39
f 63/68/54 61/68/54 17/68/54
f 20/68/55 19/68/55 59/68/55
f 17/68/56 1/68/56 10/68/56 63/68/56
f 19/68/57 23/68/57 57/68/57
f 1/68/58 17/68/58 57/68/58
f 10/68/59 1/68/59 59/68/59
f 19/68/60 60/68/60 59/68/60
f 17/68/61 61/68/61 57/68/61
f 57/68/61 61/68/61 19/68/61
f 61/68/54 62/68/54 60/68/54 19/68/54
f 59/68/60 60/68/60 10/68/60
f 59/68/62 1/68/62 58/68/62
f 57/68/63 58/68/63 1/68/63
f 10/68/54 60/68/54 63/68/54
f 61/68/54 63/68/54 60/68/54 62/68/54
usemtl THRUST-BODY
f 6/1/1 24/2/1 36/1/1
f 40/19/8 39/18/8 25/18/8
f 24/24/12 7/25/12 34/25/12
f 3/19/18 8/34/18 40/19/18
f 25/18/8 3/19/8 40/19/8
f 36/1/36 41/34/36 8/34/36
f 36/1/1 24/2/1 37/2/1
f 38/49/40 25/48/40 39/48/40
f 27/50/41 32/51/41 43/50/41
f 8/34/36 6/1/36 36/1/36
f 4/49/40 25/48/40 38/49/40
f 9/52/37 38/49/37 35/52/37
f 7/25/38 9/52/38 34/25/38
f 30/53/42 28/54/42 45/54/42
f 33/55/43 26/56/43 42/56/43
f 28/57/44 31/58/44 45/57/44
f 29/59/45 33/55/45 46/59/45
f 31/58/46 27/50/46 43/50/46
f 32/51/47 29/60/47 46/60/47
f 26/56/48 30/53/48 42/56/48
f 27/50/49 34/25/49 35/52/49
f 28/54/49 30/53/49 36/61/49
f 29/60/49 38/62/49 39/63/49
f 26/56/49 33/55/49 40/19/49
f 30/53/49 26/56/49 36/61/49
f 31/58/49 28/57/49 34/25/49
f 32/51/49 27/50/49 38/62/49
f 33/55/49 29/59/49 40/19/49
f 40/19/18 8/34/18 41/34/18
f 38/49/37 9/52/37 4/49/37
f 34/25/38 9/52/38 35/52/38
f 34/25/12 37/24/12 24/24/12
f 45/57/44 31/58/44 48/58/44
f 46/59/45 33/55/45 50/55/45
f 43/50/46 48/58/46 31/58/46
f 43/50/41 32/51/41 49/51/41
f 45/54/42 47/53/42 30/53/42
f 46/60/47 49/51/47 32/51/47
f 42/56/43 50/55/43 33/55/43
f 42/56/48 30/53/48 47/53/48
f 36/61/49 26/56/49 41/34/49
f 34/25/49 27/50/49 31/58/49
f 34/25/49 28/57/49 37/24/49
f 36/61/49 37/65/49 28/54/49
f 38/62/49 27/50/49 35/52/49
f 38/62/49 29/60/49 32/51/49
f 40/19/49 29/59/49 39/18/49
f 40/19/49 41/34/49 26/56/49
usemtl THRUST-JET
f 44/64/49 47/53/49 45/54/49
f 43/50/49 44/64/49 48/58/49
f 43/50/49 49/51/49 44/64/49
f 42/56/49 44/64/49 50/55/49
f 44/64/49 49/51/49 46/60/49
f 47/53/49 44/64/49 42/56/49
f 48/58/49 44/64/49 45/57/49
f 50/55/49 44/64/49 46/59/49
usemtl CANOPY
f 51/66/50 55/41/50 54/40/50
f 51/67/51 54/39/51 56/38/51
f 56/36/52 53/35/52 51/44/52
f 51/30/53 52/29/53 55/43/53
