# Blender 5.0.1
# www.blender.org
mtllib ShipV2.mtl
o SHIP
v 0.005698 -0.579983 -1.213433
v 0.008196 -1.005408 -2.002458
v 0.746071 0.358610 8.550172
v 0.746071 -1.125334 8.550172
v -0.744193 -0.883362 0.997542
v -0.737874 0.358610 8.550172
v -0.737874 -1.125334 8.550172
v 0.008196 0.616638 8.550172
v 0.008196 -1.383362 8.550172
v -0.721995 -0.845748 1.004216
v 0.396637 -0.383362 -2.002458
v -5.758483 -0.383362 7.471255
v 5.732554 -0.383362 7.471255
v -0.394530 -0.383362 -2.002458
v 0.008196 -0.600173 -3.116165
v 0.744193 -0.883362 0.997542
v 0.721978 -0.845569 1.004118
v 0.008196 -1.383362 0.997542
v 0.008196 0.616638 0.997542
v -0.495350 0.616638 0.994255
v -0.494569 -1.167312 0.989609
v 0.502584 -1.167312 0.988386
v 0.507181 0.616638 1.016193
v -1.000000 -0.383362 8.550172
v 1.000001 -0.383362 8.550172
v 0.007972 0.485918 8.740251
v 0.007972 -1.252643 8.740251
v -0.869055 -0.383362 8.740251
v 0.869504 -0.383362 8.740251
v -0.641281 0.261375 8.740251
v -0.641281 -1.028099 8.740251
v 0.648682 -1.028592 8.740251
v 0.648682 0.261868 8.740251
v -0.737874 -1.125334 8.740251
v 0.008196 -1.383362 8.740251
v -0.737874 0.358610 8.740251
v -1.000000 -0.383362 8.740251
v 0.746071 -1.125334 8.740251
v 1.000001 -0.383362 8.740251
v 0.746071 0.358610 8.740251
v 0.008196 0.616638 8.740251
v 0.007972 0.485918 7.848142
v 0.007972 -1.252643 7.848142
v 0.034124 -0.383362 7.848142
v -0.869055 -0.383362 7.848142
v 0.869504 -0.383362 7.848142
v -0.641281 0.261375 7.848142
v -0.641281 -1.028099 7.848142
v 0.648682 -1.028592 7.848142
v 0.648682 0.261868 7.848142
v 0.006089 -0.317107 -2.002596
v -1.000000 -0.385449 0.997405
v 1.000000 -0.385449 0.997404
v 0.008196 0.614551 0.997404
v -0.495350 0.614551 0.994117
v 0.507181 0.614551 1.016056
v 1.000000 -0.383362 0.997542
v 0.006089 -0.315020 -2.002458
v -1.000000 -0.383362 0.997542
v -0.492131 -0.385390 1.002115
v 0.497325 -0.385360 1.002048
v 0.002597 -0.385375 1.002082
v -0.000008 -0.845659 1.004167
v 0.005649 -0.343349 -1.367695
v 0.454516 -0.367359 -1.219102
v -0.448252 -0.367359 -1.219102
v -0.241116 -0.779129 -1.074382
v 0.247190 -0.779049 -1.074426
v -0.561614 -0.381745 -1.077180
v 0.007142 0.200807 -1.110299
v 0.566604 -0.381745 -1.077180
v 0.325218 0.118572 -1.117638
v -0.311918 0.118227 -1.129006
v -0.172707 0.437205 0.997542
v 0.141192 0.344190 0.998767
v -0.098696 0.402561 0.998519
v 0.234559 0.388404 0.997542
vn -0.9429 0.3331 -0.0000
vn -0.1261 0.9877 -0.0927
vn 0.3960 -0.9110 -0.1148
vn 0.1672 0.9552 -0.2443
vn -0.1630 0.9557 -0.2450
vn -0.3907 -0.9133 -0.1151
vn 0.2216 0.0758 0.9722
vn 0.9461 0.3238 -0.0000
vn 0.8329 -0.5201 -0.1892
vn 0.8364 -0.5223 -0.1665
vn -0.7512 -0.6598 -0.0205
vn -0.9429 -0.3331 -0.0000
vn 0.8902 -0.4554 -0.0148
vn -0.1598 0.9867 -0.0311
vn -0.8235 -0.5331 -0.1940
vn -0.2205 -0.0779 0.9723
vn -0.2205 0.0779 0.9723
vn 0.3301 0.9439 -0.0000
vn -0.8762 -0.4483 -0.1768
vn 0.8968 0.4422 -0.0133
vn 0.8763 -0.4483 -0.1762
vn -0.3947 -0.9188 -0.0076
vn -0.7395 -0.6447 -0.1936
vn -0.0013 0.9994 0.0343
vn -0.0002 0.9994 0.0341
vn -0.8927 0.4505 -0.0133
vn 0.7618 -0.6475 -0.0209
vn 0.4003 -0.9163 -0.0078
vn -0.8902 -0.4554 -0.0138
vn 0.1655 0.9857 -0.0324
vn -0.1261 -0.9877 -0.0927
vn 0.1269 0.9876 -0.0928
vn 0.1269 -0.9876 -0.0928
vn 0.7504 -0.6323 -0.1923
vn -0.8275 -0.5357 -0.1680
vn -0.3269 0.9451 -0.0000
vn 0.3301 -0.9439 -0.0000
vn -0.3269 -0.9451 -0.0000
vn 0.2216 -0.0758 0.9722
vn 0.9461 -0.3238 -0.0000
vn -0.3301 0.9439 -0.0000
vn 0.9429 -0.3331 -0.0000
vn -0.3301 -0.9439 -0.0000
vn 0.9429 0.3331 -0.0000
vn -0.9461 -0.3238 -0.0000
vn 0.3269 0.9451 -0.0000
vn -0.9461 0.3238 -0.0000
vn 0.3269 -0.9451 -0.0000
vn -0.0000 -0.0000 1.0000
vn -0.1909 0.8491 -0.4926
vn 0.2074 0.8460 -0.4913
vn 0.8846 0.4303 -0.1797
vn -0.8078 0.3546 -0.4708
vn -0.0001 -0.0045 -1.0000
vn 0.0065 -0.0066 -1.0000
vn -0.0001 0.9995 0.0320
vn 0.0373 0.0370 -0.9986
vn 0.8366 0.5060 0.2098
vn -0.2408 0.5300 0.8131
vn 0.0090 -0.0090 -0.9999
vn -0.0089 -0.0089 -0.9999
vn -0.0000 0.5725 0.8199
vn -0.8414 0.4977 0.2106
vn 0.2383 0.5304 0.8136
vn 0.0386 0.9983 0.0446
vn -0.0382 0.9983 0.0445
vn 0.1008 0.9719 -0.2128
vn 0.8109 0.3535 -0.4664
vn -0.8812 0.4365 -0.1818
vn -0.0919 0.9727 -0.2132
vn -0.8370 0.5064 0.2074
vn 0.8408 0.4978 0.2129
vn -0.1810 0.4059 0.8958
vn 0.1785 0.4049 0.8968
vt 0.614073 0.884992
vt 0.603146 0.896009
vt 0.500000 0.000000
vt 0.625000 0.000000
vt 0.500000 0.125000
vt 0.375000 0.500000
vt 0.375000 0.624619
vt 0.313012 0.625000
vt 0.500000 0.376024
vt 0.625000 0.376024
vt 0.500000 0.500000
vt 0.500000 0.250000
vt 0.251024 0.500000
vt 0.251024 0.625000
vt 0.188179 0.624669
vt 0.500000 0.750000
vt 0.625000 0.750000
vt 0.603342 0.852495
vt 0.614171 0.863235
vt 0.375000 0.376024
vt 0.375000 0.000000
vt 0.437500 0.125000
vt 0.375000 0.125331
vt 0.396854 0.896009
vt 0.385927 0.884992
vt 0.375000 0.750000
vt 0.437500 0.625000
vt 0.500000 0.625000
vt 0.562500 0.125000
vt 0.593750 0.187500
vt 0.625000 0.250000
vt 0.500000 1.000000
vt 0.375000 1.000000
vt 0.625000 1.000000
vt 0.625000 0.873976
vt 0.562500 0.625000
vt 0.625000 0.625777
vt 0.125000 0.750000
vt 0.686602 0.625777
vt 0.748976 0.625000
vt 0.811988 0.625000
vt 0.875000 0.624863
vt 0.875000 0.750000
vt 0.625000 0.125137
vt 0.625000 0.500000
vt 0.593750 0.562500
vt 0.375000 0.250000
vt 0.748976 0.750000
vt 0.251024 0.750000
vt 0.396658 0.852496
vt 0.385829 0.863236
vt 0.391190 0.874027
vt 0.445460 0.864904
vt 0.375000 0.873976
vt 0.554126 0.883819
vt 0.500000 0.893625
vt 0.598797 0.864737
vt 0.608515 0.874030
vt 0.409915 0.893219
vt 0.400420 0.883646
vt 0.589380 0.855398
vt 0.500000 0.855801
vt 0.562500 0.885225
vt 0.437500 0.863469
vt 0.500000 0.852962
vt 0.500000 0.873976
vt 0.500000 0.896474
vt 0.875000 0.500000
vt 0.875000 0.558345
vt 0.843494 0.562500
vt 0.748976 0.500000
vt 0.748976 0.562500
vt 0.719808 0.558818
vt 0.625000 0.558818
vt 0.625000 0.191655
vt 0.000000 0.000000
s 0
usemtl BODY
f 12/3/2 6/4/2 59/5/2
f 2/6/3 22/7/3 18/8/3
f 15/9/4 58/10/4 11/11/4
f 14/12/5 58/10/5 15/9/5
f 2/13/6 18/14/6 21/15/6
f 13/16/7 3/17/7 25/18/7
f 2/20/9 15/9/9 11/11/9
f 2/6/10 11/11/10 22/7/10
f 7/21/11 5/22/11 21/23/11
f 4/26/13 16/27/13 57/28/13
f 14/12/14 59/29/14 66/30/14 58/31/14
f 2/20/15 14/12/15 15/9/15
f 12/32/16 7/33/16 24/24/16
f 12/32/17 24/2/17 6/34/17
f 14/12/19 5/22/19 59/5/19
f 3/17/20 57/36/20 23/37/20
f 57/28/21 16/27/21 11/11/21
f 21/15/22 18/14/22 7/38/22
f 21/23/23 5/22/23 14/12/23
f 23/39/24 19/40/24 3/17/24
f 19/41/25 20/42/25 6/43/25
f 20/44/26 59/29/26 6/4/26
f 22/7/27 16/27/27 4/26/27
f 18/8/28 22/7/28 4/26/28
f 59/5/29 5/22/29 7/21/29
f 58/45/30 65/46/30 57/36/30 11/11/30
f 7/21/31 12/3/31 59/5/31
f 3/17/32 13/16/32 57/28/32
f 57/28/33 13/16/33 4/26/33
f 22/7/34 11/11/34 16/27/34
f 14/12/35 2/47/35 21/23/35
f 6/43/36 8/48/36 19/41/36
f 3/17/18 19/40/18 8/48/18
f 4/26/37 9/49/37 18/8/37
f 7/38/38 18/14/38 9/49/38
f 25/50/39 4/26/39 13/16/39
f 63/76/54 61/76/54 17/76/54
f 20/76/55 19/76/55 74/76/55 59/76/55
f 17/76/56 68/76/56 67/76/56 10/76/56 63/76/56
f 19/76/57 23/76/57 57/76/57 77/76/57
f 10/76/58 67/76/58 59/76/58
f 1/76/59 65/76/59 64/76/59
f 19/76/60 76/76/60 74/76/60
f 17/76/61 61/76/61 57/76/61
f 57/76/61 61/76/61 75/76/61 77/76/61
f 61/76/54 62/76/54 60/76/54 76/76/54 19/76/54 75/76/54
f 59/76/60 60/76/60 10/76/60
f 67/76/62 68/76/62 1/76/62
f 10/76/54 60/76/54 63/76/54
f 61/76/54 63/76/54 60/76/54 62/76/54
f 65/76/63 68/76/63 57/76/63
f 66/76/64 1/76/64 64/76/64
f 65/76/65 58/31/65 64/76/65
f 64/76/66 58/31/66 66/76/66
f 57/76/71 68/76/71 17/76/71
f 59/76/72 67/76/72 66/76/72
f 77/76/61 75/76/61 19/76/61
f 65/76/73 1/76/73 68/76/73
f 1/76/74 66/76/74 67/76/74
f 74/76/60 76/76/60 60/76/60 59/76/60
usemtl THRUST-BODY
f 6/1/1 24/2/1 36/1/1
f 40/19/8 39/18/8 25/18/8
f 24/24/12 7/25/12 34/25/12
f 3/19/18 8/35/18 40/19/18
f 25/18/8 3/19/8 40/19/8
f 36/1/36 41/35/36 8/35/36
f 36/1/1 24/2/1 37/2/1
f 38/51/40 25/50/40 39/50/40
f 27/52/41 32/53/41 43/52/41
f 8/35/36 6/1/36 36/1/36
f 4/51/40 25/50/40 38/51/40
f 9/54/37 38/51/37 35/54/37
f 7/25/38 9/54/38 34/25/38
f 30/55/42 28/56/42 45/56/42
f 33/57/43 26/58/43 42/58/43
f 28/59/44 31/60/44 45/59/44
f 29/61/45 33/57/45 46/61/45
f 31/60/46 27/52/46 43/52/46
f 32/53/47 29/62/47 46/62/47
f 26/58/48 30/55/48 42/58/48
f 27/52/49 34/25/49 35/54/49
f 28/56/49 30/55/49 36/63/49
f 29/62/49 38/64/49 39/65/49
f 26/58/49 33/57/49 40/19/49
f 30/55/49 26/58/49 36/63/49
f 31/60/49 28/59/49 34/25/49
f 32/53/49 27/52/49 38/64/49
f 33/57/49 29/61/49 40/19/49
f 40/19/18 8/35/18 41/35/18
f 38/51/37 9/54/37 4/51/37
f 34/25/38 9/54/38 35/54/38
f 34/25/12 37/24/12 24/24/12
f 45/59/44 31/60/44 48/60/44
f 46/61/45 33/57/45 50/57/45
f 43/52/46 48/60/46 31/60/46
f 43/52/41 32/53/41 49/53/41
f 45/56/42 47/55/42 30/55/42
f 46/62/47 49/53/47 32/53/47
f 42/58/43 50/57/43 33/57/43
f 42/58/48 30/55/48 47/55/48
f 36/63/49 26/58/49 41/35/49
f 34/25/49 27/52/49 31/60/49
f 34/25/49 28/59/49 37/24/49
f 36/63/49 37/67/49 28/56/49
f 38/64/49 27/52/49 35/54/49
f 38/64/49 29/62/49 32/53/49
f 40/19/49 29/61/49 39/18/49
f 40/19/49 41/35/49 26/58/49
usemtl THRUST-JET
f 44/66/49 47/55/49 45/56/49
f 43/52/49 44/66/49 48/60/49
f 43/52/49 49/53/49 44/66/49
f 42/58/49 44/66/49 50/57/49
f 44/66/49 49/53/49 46/62/49
f 47/55/49 44/66/49 42/58/49
f 48/60/49 44/66/49 45/59/49
f 50/57/49 44/66/49 46/61/49
usemtl CANOPY
f 51/68/50 73/69/50 70/70/50
f 51/71/51 70/72/51 72/73/51
f 56/37/52 53/36/52 71/46/52 72/74/52
f 51/31/53 69/30/53 73/75/53
f 72/73/67 70/72/67 54/40/67 56/39/67
f 72/74/68 71/46/68 51/45/68
f 73/75/69 69/30/69 52/29/69 55/44/69
f 70/70/70 73/69/70 55/42/70 54/41/70
o SCREEN
v -0.476172 -0.386077 -0.404822
v -0.476172 -0.084188 -0.579117
v 0.235496 -0.603326 -0.787496
v 0.235496 -0.301437 -0.961792
v -0.234526 -0.301437 -0.961792
v -0.234526 -0.603326 -0.787496
v 0.477141 -0.386077 -0.404822
v 0.477141 -0.084188 -0.579117
v -0.460471 -0.374011 -0.405663
v -0.460471 -0.090949 -0.569088
v 0.235496 -0.585362 -0.778123
v 0.235496 -0.302301 -0.941548
v -0.234526 -0.302301 -0.941548
v -0.234526 -0.585362 -0.778123
v 0.461441 -0.374011 -0.405663
v 0.461441 -0.090949 -0.569088
v -0.467662 -0.077639 -0.567773
v -0.467662 -0.379527 -0.393478
v -0.234526 -0.292888 -0.946983
v -0.234526 -0.594776 -0.772688
v 0.235496 -0.594776 -0.772688
v 0.468632 -0.077639 -0.567773
v 0.235496 -0.292888 -0.946983
v 0.468632 -0.379527 -0.393478
vn -0.0000 -0.5000 -0.8660
vn -0.8765 -0.2407 -0.4169
vn 0.8765 -0.2407 -0.4169
vn 0.0089 -0.8672 0.4978
vn -0.0000 -0.8660 0.5000
vn -0.8386 0.2724 0.4718
vn 0.8386 0.2724 0.4718
vn -0.0000 0.8660 -0.5000
vn 0.0089 0.8672 -0.4978
vn -0.0089 0.8672 -0.4978
vn -0.0089 -0.8672 0.4978
vn 0.7350 0.3390 0.5872
vn 0.8761 0.3393 0.3425
vn -0.0000 0.5000 0.8660
vn -0.8761 0.3393 0.3425
vn 0.8768 0.1256 0.4642
vn -0.8768 0.1256 0.4642
vn -0.7350 0.3390 0.5872
vn -0.8844 0.2333 0.4041
vn 0.8844 0.2333 0.4041
vt 0.326657 0.000087
vt 0.326657 0.999913
vt 0.664543 0.999913
vt 0.664543 0.000087
vt -0.011230 0.000087
vt -0.011230 0.999913
vt 1.002430 0.999913
vt 1.002430 0.000087
vt 0.006832 0.031264
vt 0.006832 0.968736
vt 0.326657 0.968736
vt 0.664543 0.031264
vt 0.326657 0.031264
vt 0.664543 0.968736
vt 0.984368 0.968736
vt 0.984368 0.031264
vt 0.984368 0.968736
vt 0.664543 0.968736
vt 0.664543 0.031264
vt 0.984368 0.031264
vt 0.664543 0.968736
vt 0.326657 0.968736
vt 0.326657 0.031264
vt 0.664543 0.031264
vt 0.326657 0.968736
vt 0.006832 0.968736
vt 0.006832 0.031264
vt 0.326657 0.031264
s 0
usemtl BASE
f 83/77/75 82/78/75 81/79/75 80/80/75
f 78/81/76 79/82/76 82/78/76 83/77/76
f 80/80/77 81/79/77 85/83/77 84/84/77
f 78/81/78 83/77/78 97/77/78 95/81/78
f 83/77/79 80/80/79 98/80/79 97/77/79
f 79/82/80 78/81/80 95/81/80 94/82/80
f 84/84/81 85/83/81 99/83/81 101/84/81
f 81/79/82 82/78/82 96/78/82 100/79/82
f 85/83/83 81/79/83 100/79/83 99/83/83
f 82/78/84 79/82/84 94/82/84 96/78/84
f 80/80/85 84/84/85 101/84/85 98/80/85
f 86/85/86 87/86/86 94/82/86 95/81/86
f 87/86/87 90/87/87 96/78/87 94/82/87
f 88/88/88 91/89/88 97/77/88 98/80/88
f 89/90/89 93/91/89 99/83/89 100/79/89
f 90/87/88 89/90/88 100/79/88 96/78/88
f 91/89/90 86/85/90 95/81/90 97/77/90
f 92/92/91 88/88/91 98/80/91 101/84/91
f 93/91/92 92/92/92 101/84/92 99/83/92
usemtl @HUD-INFO
f 86/101/94 91/102/94 90/103/94 87/104/94
usemtl @HUD-SYSTEMS
f 91/97/88 88/98/88 89/99/88 90/100/88
usemtl @HUD-RADAR
f 88/93/93 92/94/93 93/95/93 89/96/93
