# Blender 5.0.1
# www.blender.org
mtllib ShipV3.mtl
o SHIP
v 0.005698 -0.579983 -1.213433
v 0.008196 -1.005408 -2.002458
v 0.746071 0.358610 8.550172
v 0.746071 -1.125334 8.550172
v -0.744193 -0.883362 0.997542
v -0.737874 0.358610 8.550172
v -0.737874 -1.125334 8.550172
v 0.008196 0.616638 8.550172
v 0.008196 -1.383362 8.550172
v -0.636267 -0.845748 1.004216
v 0.396637 -0.383362 -2.002458
v -5.758483 0.274078 10.132032
v 5.732554 0.274078 10.132032
v -0.394530 -0.383362 -2.002458
v 0.008196 -0.600173 -3.116165
v 0.744193 -0.883362 0.997542
v 0.636965 -0.845569 1.004118
v 0.008196 -1.383362 0.997542
v 0.007583 0.616638 0.997542
v -0.436421 0.398081 0.994255
v -0.494569 -1.167312 0.989609
v 0.502584 -1.167312 0.988386
v 0.447566 0.398081 1.016193
v -1.000000 -0.383362 8.550172
v 1.000001 -0.383362 8.550172
v 0.882112 -0.383362 0.997542
v 0.006089 -0.315020 -3.513432
v -0.881399 -0.383362 0.997542
v 0.000349 -0.845659 1.004167
v 0.005649 -0.343349 -1.367695
v 0.401129 -0.367359 -1.219102
v -0.394892 -0.367359 -1.219102
v -0.241116 -0.779129 -1.074382
v 0.247190 -0.779049 -1.074426
v 0.009508 1.382890 9.431903
v -1.209806 -0.754348 8.010714
v -1.209806 -0.012376 8.010714
v 1.200082 -0.012376 8.010714
v 1.200082 -0.754348 8.010714
v 0.087301 0.673018 8.550172
v -3.965724 -0.189413 5.706340
v -1.258492 -0.383362 8.010714
v -0.073695 0.673018 8.550172
v 0.008631 0.673018 8.550172
v 1.247245 -0.383362 8.010714
v 3.952760 -0.189413 5.706339
v 0.675208 0.287747 8.558200
v 0.675208 -1.054471 8.558200
v -0.667011 0.287747 8.558200
v -0.667011 -1.054471 8.558200
v 0.007804 0.521132 8.558200
v 0.007804 -1.287856 8.558200
v -0.904102 -0.383362 8.558200
v 0.904886 -0.383362 8.558200
v -0.602596 -0.813630 1.009401
v 0.603528 -0.813460 1.009308
v 0.007319 0.571679 1.003078
v -0.413284 0.364642 0.999964
v 0.424112 0.364642 1.020747
v 0.835754 -0.375614 1.003078
v -0.834808 -0.375614 1.003079
v 0.000466 -0.813545 1.009354
v -0.602596 -0.813630 7.312730
v 0.603528 -0.813460 7.312637
v 0.007319 0.571679 7.306407
v -0.413284 0.364642 7.303294
v 0.424112 0.364642 7.324076
v 0.835754 -0.375614 7.306407
v -0.834808 -0.375614 7.306408
v 0.000466 -0.813545 7.312684
v 0.007319 0.571679 1.134444
v -0.413284 0.364642 1.131331
v -0.834808 -0.375614 1.134445
v -0.602596 -0.813630 1.140767
v 0.000466 -0.813545 1.140721
v 0.603528 -0.813460 1.140674
v 0.835754 -0.375614 1.134444
v 0.424112 0.364642 1.152113
v -0.619431 -0.829689 1.006809
v 0.000408 -0.829602 1.006761
v 0.620247 -0.829515 1.006713
v 0.435839 0.381361 1.018470
v 0.007451 0.594159 1.000310
v -0.858104 -0.379488 1.000310
v 0.858933 -0.379488 1.000310
v -0.424852 0.381361 0.997110
v -0.868937 -0.012376 8.550172
v -0.868937 -0.754348 8.550172
v -1.234149 -0.197869 8.010714
v -1.234149 -0.568855 8.010714
v -0.785557 -0.047808 8.558200
v -0.785557 -0.718917 8.558200
v -5.057232 0.177178 9.776100
v 5.034973 0.177178 9.776100
v 0.873036 -0.754348 8.550172
v 0.873036 -0.012376 8.550172
v 1.223663 -0.568855 8.010714
v 1.223663 -0.197869 8.010714
v 0.790047 -0.718917 8.558200
v 0.790047 -0.047808 8.558200
v 0.936518 -0.197869 8.550172
v 1.235454 -0.476109 8.010714
v 1.235454 -0.290616 8.010714
v 0.847466 -0.215585 8.558200
v 4.686183 0.128727 9.598134
v 0.936518 -0.568855 8.550172
v 0.847466 -0.551139 8.558200
v -0.934469 -0.568855 8.550172
v -1.246321 -0.476109 8.010714
v -0.844830 -0.551139 8.558200
v -4.706606 0.128727 9.598134
v -0.934469 -0.197869 8.550172
v -1.246321 -0.290616 8.010714
v -0.844830 -0.215585 8.558200
v -1.473946 -0.224309 8.468029
v -1.459540 -0.065972 8.468029
v -1.459540 -0.640360 8.468029
v 1.449637 -0.065972 8.468029
v 1.449637 -0.640360 8.468029
v 1.463593 -0.482023 8.468029
v 1.463593 -0.224309 8.468029
v -1.473946 -0.482023 8.468029
v 2.615780 -0.383362 3.128008
v 0.973076 -0.939841 8.280443
v 0.973076 0.173117 8.280443
v 1.048350 -0.661602 8.280443
v 1.048350 -0.105123 8.280443
v -2.621906 -0.383362 3.128009
v -0.973840 0.173117 8.280443
v -0.973840 -0.939841 8.280443
v -1.051543 -0.105123 8.280443
v -1.051543 -0.661602 8.280443
v 3.340968 -0.328476 4.468997
v 1.086579 0.080370 8.145578
v 1.136007 -0.615229 8.145578
v 1.200056 -0.211089 8.509100
v 1.200056 -0.543301 8.509100
v 1.161336 -0.702841 8.509100
v 1.161336 -0.039174 8.509100
v 1.086579 -0.847095 8.145578
v 1.136006 -0.151496 8.145578
v 0.859573 -1.032588 8.415308
v 1.336650 -0.131921 8.239371
v 0.960693 -0.058749 8.415308
v 1.336650 -0.634088 8.239371
v 1.435202 -0.383362 2.373460
v 0.859573 0.265863 8.415308
v 0.960693 -0.707975 8.415308
v 1.148672 -0.671031 8.327339
v 1.148671 -0.095335 8.327339
v -1.437908 -0.383362 2.373461
v -0.855857 0.265863 8.415308
v -0.960240 -0.707975 8.415308
v -1.346845 -0.131921 8.239371
v -1.346845 -0.634088 8.239371
v -0.855857 -1.032588 8.415308
v -0.960240 -0.058749 8.415308
v -1.091823 -0.847095 8.145578
v -1.142846 -0.151496 8.145578
v -1.204208 -0.543301 8.509100
v -1.204208 -0.211089 8.509100
v -1.164239 -0.039174 8.509100
v -1.164239 -0.702841 8.509100
v -3.350513 -0.328476 4.468996
v -1.091823 0.080370 8.145578
v -1.142846 -0.615229 8.145578
v -1.153542 -0.095335 8.327339
v -1.153542 -0.671031 8.327339
vn -0.2834 0.9554 -0.0826
vn 0.3960 -0.9110 -0.1148
vn 0.9062 -0.3411 -0.2497
vn -0.8973 -0.3608 -0.2542
vn -0.3907 -0.9133 -0.1151
vn 0.8333 0.2732 0.4805
vn 0.8329 -0.5201 -0.1892
vn 0.8364 -0.5223 -0.1665
vn -0.7512 -0.6598 -0.0205
vn 0.9640 -0.2659 -0.0088
vn -0.1783 0.9838 -0.0202
vn -0.8235 -0.5331 -0.1940
vn -0.8231 -0.2786 0.4949
vn -0.8231 0.2786 0.4949
vn -0.9528 -0.2614 -0.1546
vn 0.8732 0.4863 -0.0320
vn 0.9525 -0.2627 -0.1541
vn -0.3947 -0.9188 -0.0076
vn -0.7395 -0.6447 -0.1936
vn 0.4453 0.8953 -0.0130
vn -0.4415 0.8972 -0.0129
vn -0.8686 0.4945 -0.0321
vn 0.7618 -0.6475 -0.0209
vn 0.4003 -0.9163 -0.0078
vn -0.9643 -0.2646 -0.0077
vn 0.1855 0.9824 -0.0211
vn -0.2135 -0.9768 0.0158
vn -0.0174 0.9951 -0.0972
vn 0.2140 -0.9767 0.0162
vn 0.7504 -0.6323 -0.1923
vn -0.8275 -0.5357 -0.1680
vn -0.0000 -0.0000 1.0000
vn 0.3301 -0.9439 -0.0000
vn -0.3269 -0.9451 -0.0000
vn -0.4445 0.1595 0.8815
vn -0.0001 0.9995 0.0320
vn 0.1615 0.9865 -0.0279
vn -0.2711 0.5256 0.8064
vn -0.0000 0.5725 0.8199
vn -0.1111 0.0448 -0.9928
vn 0.2679 0.5262 0.8071
vn 0.0557 0.9984 0.0132
vn -0.0550 0.9984 0.0132
vn -0.1607 0.9866 -0.0282
vn -0.8920 0.4131 0.1835
vn -0.1966 0.3897 0.8997
vn 0.1937 0.3889 0.9007
vn -0.4278 0.9038 -0.0114
vn 0.4307 0.9024 -0.0113
vn -0.2518 -0.9671 0.0359
vn 0.4110 -0.0539 0.9101
vn 0.4243 0.0557 0.9038
vn 0.0173 0.9951 -0.0972
vn 0.8275 -0.1448 0.5425
vn 0.2531 -0.9667 0.0368
vn 0.0373 0.9971 -0.0664
vn -0.4121 -0.0524 0.9096
vn 0.9924 0.1229 -0.0114
vn -0.0000 -0.7789 0.6271
vn -0.9914 0.1307 -0.0116
vn 0.0841 -0.0288 0.9960
vn -0.0290 -0.0839 0.9961
vn -0.0834 0.0295 0.9961
vn 0.0292 -0.0836 0.9961
vn -0.0290 0.0839 0.9961
vn 0.0841 0.0288 0.9960
vn -0.0834 -0.0295 0.9961
vn 0.0292 0.0836 0.9961
vn -0.0001 0.1595 -0.9872
vn -0.0186 -0.1221 -0.9923
vn 0.1106 0.0443 -0.9929
vn -0.1261 -0.0465 -0.9909
vn 0.0675 -0.1223 -0.9902
vn 0.1305 -0.0785 -0.9883
vn 0.4416 -0.8972 -0.0000
vn 0.8835 0.4684 -0.0000
vn -0.0001 1.0000 -0.0000
vn -0.8740 -0.4860 -0.0000
vn -0.4449 -0.8956 -0.0000
vn -0.8834 0.4686 -0.0000
vn 0.8690 -0.4948 -0.0000
vn 0.0060 -0.0018 -1.0000
vn 0.8917 0.4129 0.1856
vn 0.4432 0.1584 0.8823
vn 0.4047 -0.1638 0.8997
vn -0.1205 -0.9705 -0.2090
vn -0.2271 0.9657 0.1258
vn -0.4057 -0.1648 0.8990
vn -0.0452 0.9537 -0.2973
vn -0.0253 -0.9875 0.1558
vn 0.8749 0.2367 0.4225
vn -0.4251 0.0540 0.9035
vn 0.8749 -0.2367 0.4225
vn 0.0462 0.9535 -0.2978
vn -0.8663 -0.2419 0.4371
vn -0.8663 0.2419 0.4371
vn -0.0433 0.9540 -0.2965
vn 0.0247 -0.9875 0.1555
vn -0.1467 0.0433 0.9882
vn -0.1498 -0.0458 0.9876
vn 0.1527 -0.0253 0.9879
vn -0.3756 0.2843 0.8821
vn 0.1501 0.0429 0.9877
vn -0.2989 -0.2967 0.9070
vn 0.3745 0.2839 0.8827
vn 0.2980 -0.2963 0.9074
vn -0.1428 0.9822 0.1223
vn 0.2262 0.9660 0.1251
vn -0.0703 -0.9916 0.1088
vn 0.0435 0.9540 -0.2967
vn 0.0488 -0.9539 -0.2962
vn 0.0706 -0.9916 0.1086
vn 0.1398 0.9828 0.1207
vn -0.3202 -0.8991 -0.2984
vn 0.3214 -0.8984 -0.2993
vn 0.1115 0.9902 -0.0846
vn 0.1115 -0.9902 -0.0846
vn 0.8335 -0.2439 0.4958
vn 0.8322 0.2035 0.5157
vn -0.1108 -0.9902 -0.0846
vn -0.8218 0.2074 0.5307
vn -0.8218 -0.2074 0.5307
vn -0.1219 0.9911 -0.0544
vn 0.8275 0.1448 0.5425
vn 0.1489 0.0237 0.9886
vn 0.1533 -0.0454 0.9871
vn 0.1227 0.9910 -0.0542
vn 0.2099 -0.9774 -0.0263
vn 0.8322 -0.2035 0.5157
vn 0.1231 -0.9698 -0.2103
vn 0.8333 -0.2732 0.4805
vn 0.2867 -0.9544 -0.0827
vn 0.2867 0.9544 -0.0827
vn 0.1655 -0.9760 -0.1412
vn 0.8335 0.2439 0.4958
vn -0.2834 -0.9554 -0.0826
vn -0.0478 -0.9541 -0.2957
vn -0.8232 0.2486 0.5105
vn -0.8232 -0.2486 0.5105
vn -0.1108 0.9902 -0.0846
vn -0.0371 0.9971 -0.0666
vn -0.8168 -0.1475 0.5577
vn -0.8168 0.1475 0.5577
vn -0.1493 -0.0255 0.9885
vn -0.1455 0.0240 0.9891
vn -0.1620 -0.9769 -0.1393
vn -0.2086 -0.9776 -0.0267
vt 0.699031 0.185695
vt 0.536547 0.011606
vt 0.536548 -0.000000
vt 0.722243 0.185695
vt 0.000000 0.082500
vt 0.082248 0.248355
vt 0.000000 0.289774
vt 0.131841 0.670264
vt 0.263682 0.539495
vt 0.261539 0.801025
vt -0.000000 0.537343
vt 0.723765 0.371391
vt 0.723765 0.557086
vt 0.630404 0.556595
vt 0.499113 0.323894
vt 0.487327 0.255382
vt 0.497725 0.250226
vt 0.517136 0.325579
vt -0.000000 0.801034
vt 0.166363 -0.000000
vt 0.536548 0.371391
vt 0.722243 0.278543
vt 0.722734 0.371391
vt 0.164999 0.415225
vt 0.165681 0.207613
vt 0.248862 0.166363
vt 0.263682 0.661911
vt 0.429773 0.537343
vt 0.429773 0.641149
vt 0.429773 0.744956
vt 0.796409 0.783258
vt 0.726152 0.777580
vt 0.723765 0.766222
vt 0.802695 0.766222
vt 0.073826 0.886250
vt 0.090863 0.879964
vt 0.090863 0.958894
vt 0.079505 0.956507
vt 0.907938 0.185695
vt 0.723765 0.579005
vt 0.723765 0.371391
vt 0.806294 0.413946
vt 0.536547 0.742781
vt 0.355197 0.746111
vt 0.447856 0.744956
vt 0.263683 0.930652
vt 0.909460 0.672613
vt 0.909664 0.766222
vt 0.723765 0.766222
vt 0.512910 0.703616
vt 0.429773 0.744956
vt 0.429773 0.537343
vt 0.536548 0.742781
vt 0.629395 0.789205
vt 0.722243 0.835629
vt 0.536548 0.928477
vt 0.536548 0.278543
vt 0.536548 0.185695
vt 0.629395 0.185695
vt 0.414543 0.291476
vt 0.331362 0.332725
vt 0.290112 0.249544
vt 0.206590 0.394600
vt 0.907938 0.371391
vt 0.844084 0.371391
vt 0.825189 0.383894
vt 0.834636 0.377642
vt 0.856803 0.390614
vt 0.850443 0.381002
vt 0.000000 0.497049
vt 0.723765 0.742781
vt 0.480547 0.831974
vt 0.447856 0.810879
vt 0.513239 0.744956
vt 0.513239 0.771985
vt 0.000000 0.000000
vt -0.000000 1.000000
vt 0.723765 0.672613
vt 0.355769 0.930652
vt 0.536548 0.336573
vt 0.536548 0.324967
vt 0.652607 0.185695
vt 0.119829 0.829764
vt 0.168106 0.877649
vt 0.148795 0.881707
vt 0.784393 0.913874
vt 0.799671 0.845727
vt 0.821790 0.857085
vt 0.536548 0.046424
vt 0.241936 0.430184
vt 0.196192 0.399756
vt 0.251503 0.414817
vt 0.279800 0.228749
vt 0.466532 0.265695
vt 0.456134 0.270851
vt 0.369834 0.345514
vt 0.439500 0.342834
vt 0.433955 0.366828
vt 0.447856 0.930652
vt 0.723765 0.579004
vt 0.237353 0.506813
vt 0.261470 0.537343
vt 0.237353 0.506813
vt 0.090863 0.840499
vt 0.090863 0.801034
vt 0.090863 0.840499
vt 0.802695 0.766222
vt 0.806294 0.413946
vt 0.909664 0.766222
vt 0.909460 0.672613
vt 0.429773 0.744956
vt 0.512910 0.703616
vt 0.000000 0.000000
vt 0.355197 0.746111
vt 0.842160 0.766222
vt 0.842160 0.766222
vt 0.090863 0.879964
vt 0.761955 0.947948
vt 0.733312 0.811653
vt 0.777551 0.834369
vt 0.776914 0.925232
vt 0.090863 0.801034
vt 0.110174 0.820188
vt 0.129484 0.885765
vt 0.090863 0.893882
vt 0.786980 0.808813
vt 0.790123 0.800295
vt 0.513239 0.785499
vt 0.496893 0.842521
vt 0.526842 0.363255
vt 0.526842 0.363255
vt 0.213235 0.476284
vt 0.213235 0.476284
vt 0.445044 0.318840
vt 0.357010 0.341251
vt 0.048271 0.895679
vt 0.039753 0.898822
vt 0.022716 0.905108
vt 0.483171 0.353044
vt 0.536547 0.400931
vt 0.513239 0.853069
vt 0.273960 0.424926
vt 0.296416 0.435034
vt 0.472079 0.321367
vt 0.481090 0.322209
vt 0.881625 0.766222
vt 0.000000 0.860869
vt 0.011358 0.882988
vt 0.051110 0.861744
vt 0.056789 0.892536
vt 0.820915 0.805974
vt 0.255656 0.465869
vt 0.232369 0.445550
vt 0.237152 0.437867
vt 0.476930 0.260538
vt 0.269487 0.207953
vt 0.259175 0.187158
vt 0.185795 0.404913
vt 0.175397 0.410069
vt 0.222802 0.460917
vt 0.232369 0.445551
vt 0.463067 0.320524
vt 0.481090 0.322209
vt 0.536548 0.359785
vt 0.536548 0.348179
vt 0.675819 0.185695
vt 0.056789 0.892536
vt 0.068147 0.954120
vt 0.056789 0.951734
vt 0.783837 0.817332
vt 0.730925 0.800295
vt 0.728539 0.788937
vt 0.790123 0.800295
vt 0.536548 0.034818
vt 0.536548 0.023212
vt 0.045432 0.949347
s 0
usemtl BODY
f 2/5/2 22/6/2 18/7/2
f 15/8/3 27/9/3 11/10/3
f 14/11/4 27/9/4 15/8/4
f 2/12/5 18/13/5 21/14/5
f 2/19/7 15/8/7 11/10/7
f 2/5/8 11/20/8 22/6/8
f 7/21/9 5/22/9 21/23/9
f 4/24/10 16/25/10 26/26/10
f 14/27/11 28/28/11 32/29/11 27/30/11
f 2/19/12 14/11/12 15/8/12
f 14/39/15 5/22/15 28/4/15
f 3/40/16 26/41/16 23/42/16
f 26/26/17 16/25/17 11/20/17
f 21/14/18 18/13/18 7/43/18
f 21/23/19 5/22/19 14/39/19
f 23/44/20 19/45/20 3/46/20
f 19/47/21 20/48/21 6/49/21
f 20/50/22 28/51/22 6/52/22
f 22/6/23 16/25/23 4/24/23
f 18/7/24 22/6/24 4/24/24
f 28/4/25 5/22/25 7/21/25
f 27/53/26 31/54/26 26/55/26 11/56/26
f 22/6/30 11/20/30 16/25/30
f 14/39/31 2/64/31 21/23/31
f 8/65/32 3/66/32 40/67/32 44/65/32
f 6/68/32 8/65/32 44/65/32 43/69/32
f 4/24/33 9/70/33 18/7/33
f 7/43/34 18/13/34 9/71/34
f 17/76/36 34/76/36 33/76/36 10/76/36 29/76/36
f 31/54/37 85/41/37 26/55/37
f 1/76/38 31/76/38 30/76/38
f 33/76/39 34/76/39 1/76/39
f 85/76/40 17/76/40 81/76/40
f 32/76/41 1/76/41 30/76/41
f 31/76/42 27/77/42 30/76/42
f 30/76/43 27/77/43 32/76/43
f 32/76/44 28/51/44 84/76/44
f 31/76/45 34/76/45 17/76/45 85/76/45
f 31/76/46 1/76/46 34/76/46
f 1/76/47 32/76/47 33/76/47
f 6/49/48 43/78/48 19/47/48
f 3/46/49 19/45/49 40/79/49
f 106/101/61 25/102/61 54/102/61 107/103/61
f 7/43/62 9/71/62 52/71/62 50/43/62
f 112/104/63 24/105/63 53/105/63 114/106/63
f 9/70/64 4/24/64 48/24/64 52/70/64
f 8/65/65 6/68/65 49/68/65 51/65/65
f 96/18/66 3/17/66 47/17/66 100/18/66
f 88/34/67 7/33/67 50/33/67 92/107/67
f 3/66/68 8/65/68 51/65/68 47/66/68
f 80/76/69 79/76/69 55/76/69 62/76/69
f 81/76/69 80/76/69 62/76/69 56/76/69
f 83/45/70 82/44/70 59/44/70 57/45/70
f 79/76/71 84/76/71 61/76/71 55/76/71
f 82/108/72 85/41/72 60/41/72 59/42/72
f 86/109/73 83/110/73 57/47/73 58/48/73
f 85/76/40 81/76/40 56/76/40 60/76/40
f 84/111/74 86/112/74 58/50/74 61/51/74
f 72/48/75 71/47/75 65/47/75 66/48/75
f 74/76/76 73/76/76 69/76/76 63/76/76
f 76/113/77 75/76/77 70/76/77 64/76/77
f 78/42/78 77/41/78 68/41/78 67/42/78
f 75/76/77 74/76/77 63/76/77 70/76/77
f 71/45/79 78/114/79 67/44/79 65/45/79
f 77/76/80 76/113/80 64/76/80 68/76/80
f 73/51/81 72/112/81 66/50/81 69/51/81
f 68/76/82 64/76/82 70/76/82 63/76/82 69/76/82 66/50/82 65/47/82 67/44/82
f 61/51/81 58/50/81 72/112/81 73/51/81
f 60/76/80 56/76/80 76/113/80 77/76/80
f 57/45/79 59/44/79 78/114/79 71/45/79
f 62/76/77 55/76/77 74/76/77 75/76/77
f 59/42/78 60/41/78 77/41/78 78/42/78
f 56/76/77 62/76/77 75/76/77 76/113/77
f 55/76/76 61/76/76 73/76/76 74/76/76
f 58/48/75 57/47/75 71/47/75 72/48/75
f 28/51/74 20/50/74 86/112/74 84/111/74
f 32/76/83 84/76/83 10/76/83 33/76/83
f 20/48/73 19/47/73 83/110/73 86/109/73
f 23/42/72 26/41/72 85/41/72 82/108/72
f 10/76/71 84/76/71 79/76/71
f 19/45/70 23/44/70 82/44/70 83/45/70
f 17/76/69 29/76/69 80/76/69 81/76/69
f 29/76/69 10/76/69 79/76/69 80/76/69
f 108/115/67 88/34/67 92/107/67 110/116/67
f 6/37/63 87/36/63 91/117/63 49/37/63
f 101/130/66 96/18/66 100/18/66 104/131/66
f 4/24/61 95/132/61 99/133/61 48/24/61
f 25/140/66 101/130/66 104/131/66 54/140/66
f 95/132/61 106/101/61 107/103/61 99/133/61
f 24/146/67 108/115/67 110/116/67 53/146/67
f 87/36/63 112/104/63 114/106/63 91/117/63
usemtl WINGS
f 151/1/1 152/2/1 6/3/1 28/4/1
f 144/15/6 147/16/6 3/17/6 96/18/6
f 153/31/13 156/32/13 7/33/13 88/34/13
f 157/35/14 87/36/14 6/37/14 152/38/14
f 36/57/27 12/58/27 41/59/27
f 38/60/28 13/61/28 46/62/28
f 46/62/29 13/61/29 39/63/29
f 97/72/35 39/73/35 13/74/35 94/75/35
f 158/80/50 36/81/50 41/59/50 164/82/50
f 111/83/51 42/84/51 113/85/51
f 111/86/52 109/87/52 42/88/52
f 12/58/53 37/89/53 41/59/53
f 135/90/54 140/91/54 39/63/54 97/92/54
f 133/93/55 46/62/55 39/63/55 140/91/55
f 134/94/56 38/95/56 46/62/56 133/93/56
f 105/96/57 103/97/57 45/98/57
f 40/79/58 19/45/58 35/99/58
f 44/65/59 40/67/59 35/65/59
f 43/69/59 44/65/59 35/65/59
f 19/47/60 43/78/60 35/100/60
f 12/118/84 36/119/84 90/120/84 93/121/84
f 12/122/85 93/123/85 89/124/85 37/125/85
f 13/61/88 38/95/88 98/134/88 94/135/88
f 45/98/91 103/97/91 101/130/91 25/140/91
f 45/141/92 102/129/92 105/128/92
f 25/102/93 106/101/93 102/142/93 45/143/93
f 42/88/95 109/87/95 108/115/95 24/146/95
f 42/147/96 24/105/96 112/104/96 113/148/96
f 147/16/116 125/155/116 123/156/116 146/157/116
f 146/157/117 123/156/117 124/158/117 142/159/117
f 148/160/118 142/159/118 124/158/118 126/161/118
f 141/162/119 134/94/119 125/155/119 127/163/119
f 156/164/120 130/165/120 128/166/120 151/1/120
f 159/137/121 131/167/121 129/168/121 165/169/121
f 166/170/122 158/171/122 130/172/122 132/173/122
f 164/82/123 165/174/123 129/175/123 128/166/123
f 98/134/124 38/95/124 134/94/124 141/162/124
f 125/155/127 134/94/127 133/93/127 123/156/127
f 123/156/128 133/93/128 140/91/128 124/158/128
f 126/161/129 124/158/129 140/91/129 135/90/129
f 95/132/131 4/24/131 142/159/131 148/160/131
f 26/26/132 146/157/132 142/159/132 4/24/132
f 3/17/133 147/16/133 146/157/133 26/26/133
f 127/163/135 125/155/135 147/16/135 144/15/135
f 7/21/136 156/164/136 151/1/136 28/4/136
f 131/167/138 157/35/138 152/38/138 129/168/138
f 132/173/139 130/172/139 156/32/139 153/31/139
f 128/166/140 129/175/140 152/2/140 151/1/140
f 41/59/141 37/89/141 165/174/141 164/82/141
f 90/120/142 36/119/142 158/171/142 166/170/142
f 89/138/143 159/137/143 165/169/143 37/176/143
f 130/165/147 158/80/147 164/82/147 128/166/147
usemtl STRIPES
f 168/126/86 153/31/86 88/34/86 163/127/86
f 105/128/87 102/129/87 120/129/87
f 167/136/89 159/137/89 89/138/89 154/138/89
f 101/130/90 103/97/90 121/97/90 136/139/90
f 150/144/94 144/15/94 96/18/94 139/145/94
f 89/124/97 93/123/97 116/124/97 154/124/97
f 113/148/98 112/104/98 161/149/98 115/148/98
f 161/149/99 112/104/99 87/36/99 162/150/99
f 160/151/100 163/127/100 88/34/100 108/115/100
f 137/152/101 138/153/101 119/92/101 120/142/101
f 120/129/102 119/72/102 94/75/102 105/128/102
f 136/139/103 139/145/103 96/18/103 101/130/103
f 94/135/104 118/134/104 121/97/104 105/96/104
f 93/121/105 117/120/105 122/87/105 111/86/105
f 93/123/106 111/83/106 115/85/106 116/124/106
f 102/142/107 106/101/107 137/152/107 120/142/107
f 109/87/108 111/86/108 122/87/108
f 111/83/109 113/85/109 115/85/109
f 94/135/110 98/134/110 143/134/110 118/134/110
f 149/154/111 135/90/111 97/92/111 145/92/111
f 103/97/112 105/96/112 121/97/112
f 108/115/113 109/87/113 122/87/113 160/151/113
f 93/121/114 90/120/114 155/120/114 117/120/114
f 97/72/115 94/75/115 119/72/115 145/72/115
f 148/160/111 126/161/111 135/90/111 149/154/111
f 121/97/125 118/134/125 139/145/125 136/139/125
f 106/101/126 95/132/126 138/153/126 137/152/126
f 143/134/94 150/144/94 139/145/94 118/134/94
f 98/134/94 141/162/94 150/144/94 143/134/94
f 95/132/130 148/160/130 149/154/130 138/153/130
f 138/153/134 149/154/134 145/92/134 119/92/134
f 141/162/94 127/163/94 144/15/94 150/144/94
f 162/150/89 167/136/89 154/138/89 116/138/89
f 166/170/137 132/173/137 153/31/137 168/126/137
f 90/120/137 166/170/137 168/126/137 155/120/137
f 87/36/89 157/35/89 167/136/89 162/150/89
f 122/87/144 117/120/144 163/127/144 160/151/144
f 115/148/145 161/149/145 162/150/145 116/138/145
f 157/35/89 131/167/89 159/137/89 167/136/89
f 155/120/146 168/126/146 163/127/146 117/120/146
o SCREEN
v -0.476823 -0.386077 -0.404822
v -0.476823 -0.084188 -0.579117
v 0.235496 -0.603326 -0.787496
v 0.235496 -0.301437 -0.961792
v -0.234526 -0.301437 -0.961792
v -0.234526 -0.603326 -0.787496
v 0.477793 -0.386077 -0.404822
v 0.477793 -0.084188 -0.579117
v -0.461102 -0.374011 -0.405663
v -0.461102 -0.090949 -0.569088
v 0.235496 -0.585362 -0.778123
v 0.235496 -0.302301 -0.941548
v -0.234526 -0.302301 -0.941548
v -0.234526 -0.585362 -0.778123
v 0.462071 -0.374011 -0.405663
v 0.462071 -0.090949 -0.569088
v -0.468303 -0.077639 -0.567773
v -0.468303 -0.379527 -0.393478
v -0.234526 -0.292888 -0.946983
v -0.234526 -0.594776 -0.772688
v 0.235496 -0.594776 -0.772688
v 0.469272 -0.077639 -0.567773
v 0.235496 -0.292888 -0.946983
v 0.469272 -0.379527 -0.393478
v -0.428318 -0.393205 -1.114350
v -0.388573 -0.695094 -0.940055
v -0.124074 -0.534822 -1.366025
v -0.124074 -0.836710 -1.191729
v 0.125043 -0.836710 -1.191729
v 0.429287 -0.393205 -1.114350
v 0.125043 -0.534822 -1.366025
v 0.389543 -0.695094 -0.940055
vn -0.0000 -0.8660 0.5000
vn 0.0171 -0.8643 0.5026
vn -0.0171 -0.8643 0.5026
vn 0.0088 -0.8672 0.4978
vn -0.8383 0.2726 0.4722
vn 0.8383 0.2726 0.4722
vn -0.0000 0.8660 -0.5000
vn 0.0088 0.8672 -0.4978
vn -0.0088 0.8672 -0.4978
vn -0.0088 -0.8672 0.4978
vn 0.7345 0.3393 0.5877
vn 0.8756 0.3397 0.3434
vn -0.0000 0.5000 0.8660
vn -0.8756 0.3397 0.3434
vn 0.8763 0.1262 0.4650
vn -0.8763 0.1262 0.4650
vn -0.7345 0.3393 0.5877
vn -0.8839 0.2338 0.4050
vn 0.8839 0.2338 0.4050
vn -0.0000 -0.5000 -0.8660
vn -0.7117 -0.3858 -0.5871
vn 0.7117 -0.3858 -0.5871
vn -0.9923 -0.1039 -0.0668
vn 0.9923 -0.1039 -0.0668
vn 0.0145 0.8649 -0.5018
vn -0.0145 0.8649 -0.5018
vt 0.664543 0.000087
vt 0.326657 0.000087
vt -0.011230 0.000087
vt 1.002430 0.000087
vt -0.011230 0.999913
vt 1.002430 0.999913
vt 0.664543 0.999913
vt 0.326657 0.999913
vt 0.006832 0.031264
vt 0.006832 0.968736
vt 0.326657 0.968736
vt 0.664543 0.031264
vt 0.326657 0.031264
vt 0.664543 0.968736
vt 0.984368 0.968736
vt 0.984368 0.031264
vt 0.984368 0.968736
vt 0.664543 0.968736
vt 0.664543 0.031264
vt 0.984368 0.031264
vt 0.664543 0.968736
vt 0.326657 0.968736
vt 0.326657 0.031264
vt 0.664543 0.031264
vt 0.326657 0.968736
vt 0.006832 0.968736
vt 0.006832 0.031264
vt 0.326657 0.031264
s 0
usemtl BASE
f 171/177/148 174/178/148 196/178/148 197/177/148
f 174/178/149 169/179/149 194/179/149 196/178/149
f 175/180/150 171/177/150 197/177/150 200/180/150
f 169/179/151 174/178/151 188/178/151 186/179/151
f 174/178/148 171/177/148 189/177/148 188/178/148
f 170/181/152 169/179/152 186/179/152 185/181/152
f 175/180/153 176/182/153 190/182/153 192/180/153
f 172/183/154 173/184/154 187/184/154 191/183/154
f 176/182/155 172/183/155 191/183/155 190/182/155
f 173/184/156 170/181/156 185/181/156 187/184/156
f 171/177/157 175/180/157 192/180/157 189/177/157
f 177/185/158 178/186/158 185/181/158 186/179/158
f 178/186/159 181/187/159 187/184/159 185/181/159
f 179/188/160 182/189/160 188/178/160 189/177/160
f 180/190/161 184/191/161 190/182/161 191/183/161
f 181/187/160 180/190/160 191/183/160 187/184/160
f 182/189/162 177/185/162 186/179/162 188/178/162
f 183/192/163 179/188/163 189/177/163 192/180/163
f 184/191/164 183/192/164 192/180/164 190/182/164
f 196/178/167 195/184/167 199/183/167 197/177/167
f 194/179/168 193/181/168 195/184/168 196/178/168
f 197/177/169 199/183/169 198/182/169 200/180/169
f 169/179/170 170/181/170 193/181/170 194/179/170
f 176/182/171 175/180/171 200/180/171 198/182/171
f 173/184/154 172/183/154 199/183/154 195/184/154
f 172/183/172 176/182/172 198/182/172 199/183/172
f 170/181/173 173/184/173 195/184/173 193/181/173
usemtl @HUD-INFO
f 177/201/166 182/202/166 181/203/166 178/204/166
usemtl @HUD-SYSTEMS
f 182/197/160 179/198/160 180/199/160 181/200/160
usemtl @HUD-RADAR
f 179/193/165 183/194/165 184/195/165 180/196/165
o Cockpit
v 0.006089 -0.317529 -3.160140
v -0.848835 -0.385449 0.997405
v 0.849589 -0.385449 0.997404
v 0.007583 0.581996 0.997404
v -0.436421 0.363439 0.994117
v 0.447566 0.363439 1.016056
v -0.185612 -0.344234 -2.614264
v 0.005886 -0.089685 -2.626898
v 0.193886 -0.344234 -2.614264
v 0.127225 -0.121056 -2.629698
v -0.115828 -0.121187 -2.634034
v 0.007174 0.407679 -0.475597
v 0.361347 0.257283 -0.469941
v -0.618939 -0.383597 -0.459038
v 0.622213 -0.383597 -0.459038
v -0.349337 0.257111 -0.486594
v 0.007473 0.511115 0.411178
v 0.416979 0.326639 0.423332
v -0.755764 -0.384523 0.419458
v 0.757577 -0.384523 0.419457
v -0.405295 0.326553 0.404036
v -0.436451 -0.403277 -1.575017
v 0.441920 -0.403277 -1.575017
v -0.252603 0.089776 -1.604389
v 0.006616 0.220694 -1.593398
v 0.264546 0.089967 -1.594021
vn -0.2102 0.8990 -0.3842
vn 0.2229 0.8965 -0.3830
vn 0.9312 0.3078 -0.1955
vn -0.9152 0.2590 -0.3087
vn 0.4295 0.8982 -0.0932
vn 0.9185 0.2534 -0.3036
vn -0.8817 0.4593 -0.1079
vn -0.4229 0.9013 -0.0937
vn -0.4057 0.8999 -0.1601
vn -0.9211 0.3611 -0.1454
vn 0.4131 0.8966 -0.1596
vn 0.9080 0.4033 -0.1135
vn 0.8856 0.4521 -0.1066
vn -0.3953 0.9129 -0.1012
vn -0.9043 0.4112 -0.1145
vn 0.4015 0.9103 -0.1010
vn 0.3786 0.8912 -0.2498
vn -0.9283 0.3153 -0.1971
vn -0.3696 0.8948 -0.2505
vn 0.9244 0.3534 -0.1438
vt 0.875000 0.500000
vt 0.875000 0.558345
vt 0.843494 0.562500
vt 0.748976 0.500000
vt 0.748976 0.562500
vt 0.719808 0.558818
vt 0.625000 0.575558
vt 0.585938 0.578125
vt 0.593750 0.562500
vt 0.625000 0.558818
vt 0.625000 0.250000
vt 0.593750 0.187500
vt 0.625000 0.191655
vt 0.694904 0.609037
vt 0.748976 0.609375
vt 0.748976 0.625000
vt 0.686602 0.625777
vt 0.625000 0.500000
vt 0.625000 0.141767
vt 0.570312 0.140625
vt 0.562500 0.125000
vt 0.625000 0.125137
vt 0.819864 0.609375
vt 0.875000 0.608233
vt 0.875000 0.624863
vt 0.811988 0.625000
vt 0.835617 0.578125
vt 0.875000 0.574974
vt 0.875000 0.591604
vt 0.827741 0.593750
vt 0.625000 0.175026
vt 0.585938 0.171875
vt 0.578125 0.156250
vt 0.625000 0.158396
vt 0.711506 0.575558
vt 0.748976 0.578125
vt 0.748976 0.593750
vt 0.703205 0.592298
vt 0.625000 0.609037
vt 0.570312 0.609375
vt 0.578125 0.593750
vt 0.625000 0.592298
vt 0.625000 0.625777
vt 0.562500 0.625000
s 0
usemtl CANOPY
f 201/205/174 211/206/174 208/207/174
f 201/208/175 208/209/175 210/210/175
f 226/211/176 223/212/176 209/213/176 210/214/176
f 201/215/177 207/216/177 211/217/177
f 218/218/178 217/219/178 204/220/178 206/221/178
f 210/214/179 209/213/179 201/222/179
f 221/223/180 219/224/180 202/225/180 205/226/180
f 217/227/181 221/228/181 205/229/181 204/230/181
f 225/231/182 224/232/182 216/233/182 212/234/182
f 224/235/183 222/236/183 214/237/183 216/238/183
f 226/239/184 225/240/184 212/241/184 213/242/184
f 218/243/185 220/244/185 215/245/185 213/246/185
f 206/247/186 203/248/186 220/244/186 218/243/186
f 212/234/187 216/233/187 221/228/187 217/227/187
f 216/238/188 214/237/188 219/224/188 221/223/188
f 213/242/189 212/241/189 217/219/189 218/218/189
f 210/210/190 208/209/190 225/240/190 226/239/190
f 211/217/191 207/216/191 222/236/191 224/235/191
f 208/207/192 211/206/192 224/232/192 225/231/192
f 213/246/193 215/245/193 223/212/193 226/211/193
o Thruster
v 0.746071 0.358610 8.529917
v 0.746071 -1.125334 8.529917
v -0.737874 0.358610 8.529917
v -0.737874 -1.125334 8.529917
v 0.008196 0.616638 8.529917
v 0.008196 -1.383362 8.529917
v -1.000000 -0.383362 8.529917
v 1.000001 -0.383362 8.529917
v 0.007972 0.485918 8.719995
v 0.007972 -1.252643 8.719995
v -0.869055 -0.383362 8.719995
v 0.869504 -0.383362 8.719995
v -0.641281 0.261375 8.719995
v -0.641281 -1.028099 8.719995
v 0.648682 -1.028592 8.719995
v 0.648682 0.261868 8.719995
v -0.737874 -1.125334 8.719995
v 0.008196 -1.383362 8.719995
v -0.737874 0.358610 8.719995
v -1.000000 -0.383362 8.719995
v 0.746071 -1.125334 8.719995
v 1.000001 -0.383362 8.719995
v 0.746071 0.358610 8.719995
v 0.008196 0.616638 8.719995
v 0.007972 0.485918 7.827887
v 0.007972 -1.252643 7.827887
v 0.034124 -0.383362 7.827887
v -0.869055 -0.383362 7.827887
v 0.869504 -0.383362 7.827887
v -0.641281 0.261375 7.827887
v -0.641281 -1.028099 7.827887
v 0.648682 -1.028592 7.827887
v 0.648682 0.261868 7.827887
vn -0.9429 0.3331 -0.0000
vn 0.9461 0.3238 -0.0000
vn -0.9429 -0.3331 -0.0000
vn 0.3301 0.9439 -0.0000
vn -0.3269 0.9451 -0.0000
vn 0.9461 -0.3238 -0.0000
vn -0.3301 0.9439 -0.0000
vn 0.3301 -0.9439 -0.0000
vn -0.3269 -0.9451 -0.0000
vn 0.9429 -0.3331 -0.0000
vn -0.3301 -0.9439 -0.0000
vn 0.9429 0.3331 -0.0000
vn -0.9461 -0.3238 -0.0000
vn 0.3269 0.9451 -0.0000
vn -0.9461 0.3238 -0.0000
vn 0.3269 -0.9451 -0.0000
vn -0.0000 -0.0000 1.0000
vt 0.856803 0.390614
vt 0.869523 0.409838
vt 0.825189 0.383894
vt 0.806294 0.396397
vt 0.932799 0.534599
vt 0.913404 0.547055
vt 0.844084 0.371391
vt 0.881766 0.540446
vt 0.869523 0.521381
vt 0.899108 0.536005
vt 0.902695 0.454331
vt 0.894008 0.559510
vt 0.836974 0.477452
vt 0.834874 0.559141
vt 0.822725 0.406709
vt 0.839178 0.395384
vt 0.932799 0.514758
vt 0.915946 0.525582
vt 0.806294 0.417582
vt 0.906396 0.372272
vt 0.841551 0.465696
vt 0.898140 0.465451
vt 0.902271 0.371391
vt 0.806294 0.553200
vt 0.932799 0.377912
vt 0.839017 0.560002
s 0
usemtl THRUST-BODY
f 229/249/194 233/250/194 245/249/194
f 249/251/195 248/252/195 234/252/195
f 233/253/196 230/254/196 243/254/196
f 227/251/197 231/255/197 249/251/197
f 234/252/195 227/251/195 249/251/195
f 245/249/198 250/255/198 231/255/198
f 245/249/194 233/250/194 246/250/194
f 247/256/199 234/257/199 248/257/199
f 236/258/200 241/259/200 252/258/200
f 231/255/198 229/249/198 245/249/198
f 228/256/199 234/257/199 247/256/199
f 232/260/201 247/256/201 244/260/201
f 230/254/202 232/260/202 243/254/202
f 239/261/203 237/262/203 254/262/203
f 242/263/204 235/264/204 251/264/204
f 237/265/205 240/266/205 254/265/205
f 238/267/206 242/263/206 255/267/206
f 240/266/207 236/258/207 252/258/207
f 241/259/208 238/268/208 255/268/208
f 235/264/209 239/261/209 251/264/209
f 236/258/210 243/254/210 244/260/210
f 237/262/210 239/261/210 245/269/210
f 238/268/210 247/270/210 248/271/210
f 235/264/210 242/263/210 249/251/210
f 239/261/210 235/264/210 245/269/210
f 240/266/210 237/265/210 243/254/210
f 241/259/210 236/258/210 247/270/210
f 242/263/210 238/267/210 249/251/210
f 249/251/197 231/255/197 250/255/197
f 247/256/201 232/260/201 228/256/201
f 243/254/202 232/260/202 244/260/202
f 243/254/196 246/253/196 233/253/196
f 254/265/205 240/266/205 257/266/205
f 255/267/206 242/263/206 259/263/206
f 252/258/207 257/266/207 240/266/207
f 252/258/200 241/259/200 258/259/200
f 254/262/203 256/261/203 239/261/203
f 255/268/208 258/259/208 241/259/208
f 251/264/204 259/263/204 242/263/204
f 251/264/209 239/261/209 256/261/209
f 245/269/210 235/264/210 250/255/210
f 243/254/210 236/258/210 240/266/210
f 243/254/210 237/265/210 246/253/210
f 245/269/210 246/274/210 237/262/210
f 247/270/210 236/258/210 244/260/210
f 247/270/210 238/268/210 241/259/210
f 249/251/210 238/267/210 248/252/210
f 249/251/210 250/255/210 235/264/210
usemtl @THRUST-JET
f 253/272/210 256/261/210 254/262/210
f 252/258/210 253/273/210 257/266/210
f 252/258/210 258/259/210 253/273/210
f 251/264/210 253/272/210 259/263/210
f 253/273/210 258/259/210 255/268/210
f 256/261/210 253/272/210 251/264/210
f 257/266/210 253/273/210 254/265/210
f 259/263/210 253/272/210 255/267/210
